# xmcd CD database file
#
# Track frame offsets:
#	150
#	22005
#	39240
#	52490
#	67912
#	87065
#	112530
#	134462
#	145822
#	161095
#	179407
#	195035
#	207635
#	226917
#	242632
#
# Disc length: 3552 seconds
#
# Revision: 2
# Processed by: cddbd v1.5.2PL0 Copyright (c) Steve Scherf et al.
# Submitted via: CDex 1.51
#
DISCID=c70dde0f
DTITLE=Steady Rollin' Bob Margolin - Down in The Alley
DYEAR=1993
DGENRE=Blues
TTITLE0=Boogie At Midnight
TTITLE1=Brown Liquor
TTITLE2=Tough Times
TTITLE3=While You're Down There
TTITLE4=Down In The Alley
TTITLE5=Boston Driving Blues
TTITLE6=Lonesome Bedroom Blues
TTITLE7=Baby Can't Be Found
TTITLE8=Big Tree Blues
TTITLE9=Twelve Year Old Boy
TTITLE10=Dream Of Nothing
TTITLE11=Look What You Done
TTITLE12=Wee Wee Hours
TTITLE13=Now Who's The Fool
TTITLE14=Worried Life Blues
EXTD=YEAR: 1993
EXTT0=
EXTT1=
EXTT2=
EXTT3=
EXTT4=
EXTT5=
EXTT6=
EXTT7=
EXTT8=
EXTT9=
EXTT10=
EXTT11=
EXTT12=
EXTT13=
EXTT14=
PLAYORDER=
